# xmcd
#
# Track frame offsets:
#	150
#	15870
#	31823
#	45986
#	61998
#	73730
#	85832
#	101265
#	115590
#	129962
#	147587
#	165016
#	178434
#	192789
#	208588
#	224487
#	235835
#	249953
#	263364
#	277357
#	288264
#	303478
#	318291
#	334201
#	346562
#
# Disc length: 4761 seconds
#
# Revision: 1
# Processed by: cddbd v1.5.2PL0 Copyright (c) Steve Scherf et al.
# Submitted via: audiograbber 1.83.01
#
DISCID=58129719
DTITLE=Diversen - Hollandse Feest Hits Top 100
DYEAR=1900
DGENRE=
TTITLE0=Jan Smit - 'n Mooie zomer
TTITLE1=Guus Meeuwis and Vagant - Per Spoor
TTITLE2=De Havenzangers - 's Nachts na tweeen
TTITLE3=Gebroeders Ko - Muggen hier muggen daar
TTITLE4=Arie Ribbens - Als je pas getrouwd bent
TTITLE5=John Spencer - Dans nu de Rock 'n Roll
TTITLE6=Vader Abraham - Dan zingen we 1,2,3
TTITLE7=De Twee Pinten - Bij ons staat op de keukendeur
TTITLE8=Hydra - Als het gras 2 kontjes hoog is
TTITLE9=Rene Froger and Het Goede Doel - Een eigen huis
TTITLE10=Zware Jongens - Stil aan de overkant
TTITLE11=Assekruus - Slavenkoor
TTITLE12=Carousell People - Macho man
TTITLE13=Ed Nieman - Ga met me mee
TTITLE14=Antonio - Maria mi amore
TTITLE15=Bloaskaken - De Souza
TTITLE16=Lawineboys - Laat mij maar alleen
TTITLE17=Edwin Roelvink - Meisjes van de nacht
TTITLE18=Feest DJ Maarten - Doe maar gek
TTITLE19=Goldfinger - Zilverdraden tussen goud
TTITLE20=John Meijer - Jij bent precies wat ik niet wil
TTITLE21=Rogier en Co - Ik ben wel gek
TTITLE22=Peter Smulders and Fiesta Servessa - Komt de fanfare weer voorbij
TTITLE23=Thomas Berge - Die zomeravond
TTITLE24=Waanzin - Het is 'n nacht
EXTD=
EXTT0=
EXTT1=
EXTT2=
EXTT3=
EXTT4=
EXTT5=
EXTT6=
EXTT7=
EXTT8=
EXTT9=
EXTT10=
EXTT11=
EXTT12=
EXTT13=
EXTT14=
EXTT15=
EXTT16=
EXTT17=
EXTT18=
EXTT19=
EXTT20=
EXTT21=
EXTT22=
EXTT23=
EXTT24=
PLAYORDER=
